<svg xmlns="http://www.w3.org/2000/svg" xmlns:xlink="http://www.w3.org/1999/xlink" viewBox="0 0 2051.03 1875.73"><defs><style>.cls-1,.cls-3{fill:#060017;}.cls-1{stroke-miterlimit:10;stroke-width:12.98px;stroke:url(#Degradado_sin_nombre_37);}.cls-2{fill:url(#Degradado_sin_nombre_37-2);}.cls-4{fill:url(#Degradado_sin_nombre_37-3);}.cls-5{fill:url(#Degradado_sin_nombre_37-4);}.cls-6{fill:url(#Degradado_sin_nombre_37-5);}.cls-7{fill:url(#Degradado_sin_nombre_37-6);}.cls-8{fill:url(#Degradado_sin_nombre_37-7);}.cls-9{fill:url(#Degradado_sin_nombre_37-8);}.cls-10{fill:url(#Degradado_sin_nombre_37-9);}.cls-11{fill:url(#Degradado_sin_nombre_37-10);}</style><linearGradient id="Degradado_sin_nombre_37" x1="1791.42" y1="1551.35" x2="320.25" y2="345.09" gradientUnits="userSpaceOnUse"><stop offset="0.14" stop-color="#00e7ed"/><stop offset="0.31" stop-color="#2cbff0"/><stop offset="0.68" stop-color="#9b5bf8"/><stop offset="1" stop-color="#f0f"/></linearGradient><linearGradient id="Degradado_sin_nombre_37-2" x1="1346.57" y1="2386.8" x2="-133.43" y2="1418.8" xlink:href="#Degradado_sin_nombre_37"/><linearGradient id="Degradado_sin_nombre_37-3" x1="1396.53" y1="2310.41" x2="-83.47" y2="1342.41" xlink:href="#Degradado_sin_nombre_37"/><linearGradient id="Degradado_sin_nombre_37-4" x1="1452.43" y1="2224.95" x2="-27.57" y2="1256.95" xlink:href="#Degradado_sin_nombre_37"/><linearGradient id="Degradado_sin_nombre_37-5" x1="1497.03" y1="2156.75" x2="17.03" y2="1188.75" xlink:href="#Degradado_sin_nombre_37"/><linearGradient id="Degradado_sin_nombre_37-6" x1="1549.43" y1="2076.64" x2="69.43" y2="1108.64" xlink:href="#Degradado_sin_nombre_37"/><linearGradient id="Degradado_sin_nombre_37-7" x1="1588.95" y1="2016.22" x2="108.95" y2="1048.22" xlink:href="#Degradado_sin_nombre_37"/><linearGradient id="Degradado_sin_nombre_37-8" x1="1616.11" y1="1974.69" x2="136.11" y2="1006.69" xlink:href="#Degradado_sin_nombre_37"/><linearGradient id="Degradado_sin_nombre_37-9" x1="1687.47" y1="1865.58" x2="207.47" y2="897.58" xlink:href="#Degradado_sin_nombre_37"/><linearGradient id="Degradado_sin_nombre_37-10" x1="1739.21" y1="1786.48" x2="259.21" y2="818.48" xlink:href="#Degradado_sin_nombre_37"/></defs><g id="Capa_2" data-name="Capa 2"><g id="Capa_1-2" data-name="Capa 1"><path class="cls-1" d="M1027.45,14.52c-72,124.28-142,242.81-212.07,363.83L603.22,13C401.92,362.22,206.91,700.09,13.13,1038.66c-7.37,12.88-9.06,35.54-2.76,48.48,19.71,40.52,44.51,78.58,71.91,125.38l521.39-903.1c36.8,63.68,66.18,119.94,100.9,172.66,22.11,33.55,18.85,58.31-.93,92.18q-237.75,407-471,816.71c-9.72,17-19.46,43.53-12.92,58.51,18.88,43.22,46.09,82.79,74,130.57C469,1276.28,639.8,980.42,815.31,676.34,852.87,741.47,884.64,801.28,921.22,858c18.41,28.53,14,48.71-1.83,75.68-89.25,151.86-176.7,304.77-264.54,457.45-12.52,21.76-23.78,44.25-37.41,69.73h816.14c-13.62-25.48-24.88-48-37.4-69.73-87.84-152.68-175.3-305.59-264.54-457.45-15.85-27-20.25-47.15-1.84-75.68,36.59-56.71,68.36-116.52,105.92-181.65l521.6,903.71c27.88-47.78,55.09-87.35,74-130.57,6.54-15-3.19-41.49-12.91-58.51q-234-409.21-471-816.71c-19.78-33.87-23-58.63-.94-92.18,34.73-52.72,64.11-109,100.9-172.66l521.4,903.1c27.39-46.8,52.2-84.86,71.91-125.38,6.29-12.94,4.61-35.6-2.76-48.48C1844.11,700.09,1649.1,362.22,1447.8,13L1235.65,378.35c-70.1-121-136.21-239.55-208.2-363.83m198.29,1335.16H825.29l204-334ZM1023.05,740.73,896,506.19,1028,271.6l127,234.54Z"/><path class="cls-2" d="M438.48,1820.09l-15.17-29.38H338.78l-14.91,29.38H269.71l106-198.77h10.93l106,198.77Zm-39.25-72.55-18.09-36.89-18.27,36.89Z"/><path class="cls-3" d="M279.71,1814.09l99.59-186.77H383l99.58,186.77H442.14L427,1784.71H335.1l-14.91,29.38Zm73.49-60.55h55.65l-27.69-56.46Z"/><path class="cls-4" d="M569.17,1875.73c-22,0-38.44-3.37-50.23-10.3-12.5-7.35-19.39-18.64-20.5-33.55l-.47-6.44H550.4l.67,5.24a7.4,7.4,0,0,0,3.8,6c2,1.18,6.17,2.57,14.3,2.57s14.05-1.84,17.31-5.48,5.17-11,5.17-21v-1.48a49.71,49.71,0,0,1-9.09,6.17c-7.82,4.09-17.09,6.17-27.56,6.17-19.21,0-34.85-6.61-46.47-19.66-11.45-12.84-17.26-30.2-17.26-51.58,0-21.72,5.68-39.1,16.87-51.65,11.36-12.76,27.13-19.23,46.86-19.23a55.32,55.32,0,0,1,27.73,7,52.76,52.76,0,0,1,9.18,6.64v-9.48h46.84V1812.1c0,13.61-.87,23.08-2.67,29a37.91,37.91,0,0,1-9.73,16.07,56.23,56.23,0,0,1-23.77,14.22C593.36,1874.26,582.12,1875.73,569.17,1875.73Zm-1.95-152c-8.46,0-14.81,2.41-19.38,7.37s-7,12.15-7,21.56,2.24,16.41,6.85,21.37,10.79,7.19,19.26,7.19,14.81-2.35,19.35-7.2,6.9-12,6.9-21.36-2.29-16.38-7-21.52C581.63,1726.21,575.42,1723.78,567.22,1723.78Z"/><path class="cls-3" d="M632.75,1812.1q0,19.34-2.41,27.19a31.71,31.71,0,0,1-8.25,13.6,50.11,50.11,0,0,1-21.32,12.73q-13,4.11-31.6,4.11-31.06,0-47.19-9.48t-17.55-28.81h40.69a13.33,13.33,0,0,0,6.76,10.47q5.85,3.38,17.29,3.37,15.09,0,21.78-7.48t6.7-25v-17.47a48.18,48.18,0,0,1-17.88,16.84q-10.47,5.49-24.77,5.49-26.26,0-42-17.65t-15.74-47.59q0-30.45,15.35-47.66T555,1687.59a49.2,49.2,0,0,1,24.77,6.18,50.53,50.53,0,0,1,18.14,18.15v-20.21h34.84Zm-33.54-59.39q0-16.21-8.58-25.57t-23.41-9.36q-15.21,0-23.79,9.3t-8.58,25.63q0,16.35,8.45,25.45t23.66,9.11q15.21,0,23.73-9.11T599.21,1752.71Z"/><path class="cls-5" d="M731.37,1825c-22.16,0-40.07-6.54-53.22-19.43s-19.87-30.4-19.87-51.94c0-20.79,7-38.18,20.71-51.69s31.43-20.31,52.64-20.31c21.82,0,39.42,6.44,52.31,19.13s19.48,30.13,19.48,51.75c0,1.18,0,2.52-.15,4s-.26,3.28-.54,5.9l-.56,5.38H764.9l35.66,17.11-3.7,5.72c-7.47,11.56-16.71,20.29-27.46,25.94S745.89,1825,731.37,1825Zm-22.69-57.26a21.42,21.42,0,0,0,6.14,9.17c4.06,3.42,9.89,5.15,17.33,5.15a32.36,32.36,0,0,0,14.76-3.09,25.77,25.77,0,0,0,10-9.27l1.27-2Zm43.76-33.46a16.79,16.79,0,0,0-4.92-6.89c-3.69-3-9-4.57-15.89-4.57s-12.36,1.56-16.23,4.63a18.21,18.21,0,0,0-5.25,6.83Z"/><path class="cls-3" d="M796.77,1761.7H701q2.2,13.21,10,19.77t21.19,6.55a38.18,38.18,0,0,0,17.49-3.74,31.89,31.89,0,0,0,12.28-11.35l29.91,14.34q-10.41,16.1-25.23,23.89t-35.23,7.8q-30.95,0-49-17.72t-18.07-47.65q0-28.81,18.92-47.41t48.43-18.59q30.42,0,48.11,17.41t17.68,47.47c0,1.08,0,2.26-.13,3.55S797,1759.2,796.77,1761.7Zm-36.67-21.46q-1.56-11.61-8.77-17.53t-19.7-5.93q-12.48,0-20,5.93t-9.55,17.53Z"/><path class="cls-6" d="M914.22,1820.09v-66.5c0-17.9-2.66-24.1-4.25-26.21-2.43-3.21-7.12-4.84-13.93-4.84A26.4,26.4,0,0,0,884.5,1725a22.86,22.86,0,0,0-8.53,6.89,21.84,21.84,0,0,0-3.85,7.89c-.58,2.21-1.29,6.71-1.29,15.54v64.76H821.78V1685.71h48.27v10.66a65.19,65.19,0,0,1,12.86-8.48,63.18,63.18,0,0,1,28.21-6.3c10.73,0,20,1.81,27.48,5.39a42.48,42.48,0,0,1,18.5,17l.08.14a44.41,44.41,0,0,1,4.75,13.33c.9,4.71,1.34,11.67,1.34,21.28v81.35Z"/><path class="cls-3" d="M827.78,1814.09V1691.71h36.27v19.21q10-12,21.52-17.65a56.89,56.89,0,0,1,25.55-5.68q14.82,0,24.89,4.81a36.39,36.39,0,0,1,15.93,14.65,38.51,38.51,0,0,1,4.1,11.54q1.23,6.44,1.23,20.15v75.35h-37v-60.5q0-22.58-5.46-29.82T896,1716.54a32.56,32.56,0,0,0-14.11,3,29,29,0,0,0-10.73,8.67,27.75,27.75,0,0,0-4.87,10q-1.5,5.63-1.5,17.09v58.76Z"/><path class="cls-7" d="M1055.24,1825c-21.63,0-39.57-6.76-53.32-20.09s-20.81-30.93-20.81-52.16c0-20.83,7.06-38.09,21-51.32s31.9-19.8,53.67-19.8a86.75,86.75,0,0,1,19.56,2,66.27,66.27,0,0,1,16.87,6.44l3.14,1.73-.39,53.4-10.1-9.9a35.39,35.39,0,0,0-11.58-7.58,36.91,36.91,0,0,0-14-2.68c-8.85,0-15.64,2.44-20.76,7.46s-7.56,11.51-7.56,20c0,8.68,2.52,15.33,7.71,20.3s12.34,7.5,21.65,7.5a32.8,32.8,0,0,0,13.47-2.59,32.08,32.08,0,0,0,10.77-8.23l10.39-11.74.39,56.21-3,1.75a67.1,67.1,0,0,1-17.43,7.06A82.11,82.11,0,0,1,1055.24,1825Z"/><path class="cls-3" d="M1089.31,1810.48a60.51,60.51,0,0,1-15.87,6.42,75.77,75.77,0,0,1-18.2,2.06q-30.16,0-49.14-18.4t-19-47.85q0-28.82,19.12-47t49.53-18.15a81.16,81.16,0,0,1,18.2,1.87,60.19,60.19,0,0,1,15.35,5.87l-.26,35.68a41.29,41.29,0,0,0-13.53-8.86,42.7,42.7,0,0,0-16.25-3.12q-15.6,0-25,9.17t-9.36,24.27q0,15.46,9.55,24.63t25.81,9.17a38.57,38.57,0,0,0,15.93-3.12,37.8,37.8,0,0,0,12.81-9.73Z"/><path class="cls-8" d="M1115.62,1820.09V1685.71h48.92v134.38ZM1140,1668.27a26.85,26.85,0,0,1-19.41-8,25.66,25.66,0,0,1-8.17-18.88,25.41,25.41,0,0,1,8.21-18.92,27.12,27.12,0,0,1,19.37-7.79,27.67,27.67,0,0,1,19.52,7.68,26,26,0,0,1,0,38.11A27.54,27.54,0,0,1,1140,1668.27Z"/><path class="cls-3" d="M1118.37,1641.43a19.51,19.51,0,0,1,6.37-14.59,21.17,21.17,0,0,1,15.21-6.12,21.73,21.73,0,0,1,15.41,6,20,20,0,0,1,0,29.38,21.58,21.58,0,0,1-15.41,6.12,21,21,0,0,1-15.21-6.24A19.78,19.78,0,0,1,1118.37,1641.43Zm3.25,172.66V1691.71h36.92v122.38Z"/><path class="cls-9" d="M1247.54,1825c-18.65,0-33.94-6.79-45.44-20.18-11.27-13.12-17-30.51-17-51.69,0-22,5.65-39.6,16.79-52.19,11.32-12.81,27.12-19.31,46.94-19.31,10.46,0,19.83,2.32,27.87,6.9a50.69,50.69,0,0,1,9,6.58v-9.36h47.11v134.38h-48.06l.21-7.13a48.75,48.75,0,0,1-8.92,5.91C1268.2,1822.91,1258.59,1825,1247.54,1825ZM1261.06,1723c-8.36,0-14.66,2.48-19.28,7.58-4.77,5.26-7.09,12.5-7.09,22.1s2.33,16.78,6.92,21.76,10.81,7.3,19.19,7.3c8.55,0,14.88-2.38,19.37-7.28s6.88-12.31,6.88-21.78-2.33-16.74-7.11-22.06C1275.32,1725.53,1269.15,1723,1261.06,1723Z"/><path class="cls-3" d="M1326.85,1814.09H1291l.52-17.59q-7.54,11.61-18.14,17t-25.81,5.43q-25.35,0-40.89-18.09t-15.54-47.78q0-30.94,15.28-48.22t42.45-17.28q14.17,0,24.9,6.11t18,18.22v-20.21h35.11Zm-33.8-61.38q0-16.45-8.65-26.07t-23.34-9.61q-15.07,0-23.73,9.55t-8.64,26.13q0,16.61,8.51,25.83t23.6,9.23q15.35,0,23.79-9.23T1293.05,1752.71Z"/><polygon class="cls-10" points="1520.81 1820.09 1520.81 1735.63 1465.83 1798.99 1411.13 1735.68 1411.13 1820.09 1361.85 1820.09 1361.85 1621.32 1372.95 1621.32 1465.84 1726.11 1559 1621.32 1570.09 1621.32 1570.09 1820.09 1520.81 1820.09"/><path class="cls-3" d="M1564.09,1627.32v186.77h-37.28v-94.53l-61,70.26-60.71-70.26v94.53h-37.28V1627.32h2.4l95.59,107.83,95.85-107.83Z"/><path class="cls-11" d="M1749,1820.09l-15.17-29.38h-84.53l-14.91,29.38h-54.15l106-198.77h10.93l106,198.77Zm-39.25-72.55-18.09-36.89-18.27,36.89Z"/><path class="cls-3" d="M1590.18,1814.09l99.59-186.77h3.73l99.58,186.77h-40.47l-15.18-29.38h-91.86l-14.91,29.38Zm73.49-60.55h55.66l-27.7-56.46Z"/></g></g></svg>