<svg xmlns="http://www.w3.org/2000/svg" xmlns:xlink="http://www.w3.org/1999/xlink" viewBox="0 0 771.44 601.92"><defs><style>.cls-1{fill:none;stroke-miterlimit:10;stroke-width:7px;stroke:url(#Degradado_sin_nombre_11);}</style><linearGradient id="Degradado_sin_nombre_11" y1="300.96" x2="771.44" y2="300.96" gradientUnits="userSpaceOnUse"><stop offset="0" stop-color="#ff14ff"/><stop offset="1" stop-color="#00eff4"/></linearGradient></defs><g id="Capa_2" data-name="Capa 2"><g id="Capa_1-2" data-name="Capa 1"><path class="cls-1" d="M764.89,391.29,544.3,7,464.39,144.39,386.08,8.24l-80,134.22L226.08,7,6.56,390.12a23.13,23.13,0,0,0,0,23.06l24.64,42.66L227,118.51l39.65,67.15a27.63,27.63,0,0,1,.13,27.9L84.57,528.83a21,21,0,0,0,0,20.89l25.9,45.19,195.73-338.4L349,329.35a17.53,17.53,0,0,1,0,17.42L232,549.84H538.57L423.41,351a26.59,26.59,0,0,1,.26-27.13l40.77-67.31,195.24,338L685.6,552a22.66,22.66,0,0,0,.3-23.06L502.73,209.79a22.71,22.71,0,0,1,.18-22.91l40.68-68.42,197,336.89,24.19-41A22.93,22.93,0,0,0,764.89,391.29ZM458.44,507.44H311.77l75.38-123.56ZM384.9,279l-46.71-87.87L386.9,104.6l47.47,86.57Z"/></g></g></svg>